<svg width="114" height="128" viewBox="0 0 114 128" fill="none" xmlns="http://www.w3.org/2000/svg">
<rect width="90" height="128" rx="45" fill="#003682"/>
<mask id="mask0_15_2" style="mask-type:alpha" maskUnits="userSpaceOnUse" x="13" y="12" width="65" height="104">
<rect x="13" y="12" width="65" height="104" rx="32.5" fill="white"/>
</mask>
<g mask="url(#mask0_15_2)">
<rect x="-24" y="-6" width="135" height="144" fill="white"/>
<rect x="13.2974" y="112.447" width="59.4053" height="57" rx="6" transform="rotate(-60 13.2974 112.447)" fill="#003682" fill-opacity="0.35"/>
<rect x="47.3634" y="61" width="59.4053" height="57" rx="6" transform="rotate(60 47.3634 61)" fill="#003682" fill-opacity="0.35"/>
<path d="M49.1335 36.6676C49.0483 35.7301 48.669 35.0014 47.9957 34.4815C47.331 33.9531 46.3807 33.6889 45.1449 33.6889C44.3267 33.6889 43.6449 33.7955 43.0994 34.0085C42.554 34.2216 42.1449 34.5156 41.8722 34.8906C41.5994 35.2571 41.4588 35.679 41.4503 36.1562C41.4332 36.5483 41.5099 36.8935 41.6804 37.1918C41.8594 37.4901 42.1151 37.7543 42.4474 37.9844C42.7884 38.206 43.1974 38.402 43.6747 38.5724C44.152 38.7429 44.6889 38.892 45.2855 39.0199L47.5355 39.5312C48.831 39.8125 49.973 40.1875 50.9616 40.6562C51.9588 41.125 52.794 41.6832 53.4673 42.331C54.1491 42.9787 54.6648 43.7244 55.0142 44.5682C55.3636 45.4119 55.5426 46.358 55.5511 47.4062C55.5426 49.0597 55.125 50.4787 54.2983 51.6634C53.4716 52.848 52.2827 53.7557 50.7315 54.3864C49.1889 55.017 47.3267 55.3324 45.1449 55.3324C42.9545 55.3324 41.0455 55.0043 39.4176 54.348C37.7898 53.6918 36.5241 52.6946 35.6207 51.3565C34.7173 50.0185 34.2528 48.3267 34.2273 46.2812H40.2869C40.3381 47.125 40.5639 47.8281 40.9645 48.3906C41.3651 48.9531 41.9148 49.3793 42.6136 49.669C43.321 49.9588 44.1392 50.1037 45.0682 50.1037C45.9205 50.1037 46.6449 49.9886 47.2415 49.7585C47.8466 49.5284 48.3111 49.2088 48.6349 48.7997C48.9588 48.3906 49.125 47.9219 49.1335 47.3935C49.125 46.8991 48.9716 46.4773 48.6733 46.1278C48.375 45.7699 47.9148 45.4631 47.2926 45.2074C46.679 44.9432 45.8949 44.7003 44.9403 44.4787L42.2045 43.8395C39.9375 43.3196 38.152 42.4801 36.848 41.321C35.544 40.1534 34.8963 38.5767 34.9048 36.5909C34.8963 34.9716 35.331 33.5526 36.2088 32.3338C37.0866 31.1151 38.3011 30.1648 39.8523 29.483C41.4034 28.8011 43.1719 28.4602 45.1577 28.4602C47.1861 28.4602 48.946 28.8054 50.4375 29.4957C51.9375 30.1776 53.1009 31.1364 53.9276 32.3722C54.7543 33.608 55.1761 35.0398 55.1932 36.6676H49.1335Z" fill="#013682"/>
</g>
<path d="M104 128C102.895 128 102 127.105 102 126V16H114V126C114 127.105 113.105 128 112 128H104Z" fill="#003682"/>
<path d="M107.104 4.81109C107.471 4.06914 108.529 4.06914 108.896 4.81109L112.482 12.0565C112.811 12.7211 112.327 13.5 111.586 13.5H104.414C103.673 13.5 103.189 12.7211 103.518 12.0565L107.104 4.81109Z" fill="#003682"/>
</svg>
